<svg width="1257" height="218" viewBox="0 0 1257 218" fill="none" xmlns="http://www.w3.org/2000/svg">
<g clip-path="url(#clip0)">
<path d="M730.484 55.96C730.484 52.3153 732.311 50.4944 735.965 50.4973H773.331C778.374 50.4477 783.383 51.3133 788.115 53.0519C792.474 54.6538 796.438 57.1684 799.741 60.4265C803.022 63.7385 805.593 67.6818 807.298 72.0162C809.172 76.8186 810.101 81.936 810.034 87.0889C810.096 92.269 809.167 97.4135 807.298 102.247C805.595 106.632 803.025 110.632 799.741 114.007C796.448 117.316 792.484 119.885 788.115 121.543C783.397 123.342 778.382 124.24 773.331 124.191H746.758V161.954C746.758 165.599 744.933 167.421 741.281 167.421H735.965C732.311 167.421 730.484 165.599 730.484 161.954V55.96ZM770.675 109.958C777.759 109.958 783.324 107.914 787.368 103.826C791.413 99.7389 793.432 94.1625 793.427 87.0974C793.427 80.0351 791.407 74.5425 787.368 70.6197C783.329 66.6968 777.821 64.7368 770.842 64.7396H746.758V109.958H770.675Z" fill="white"/>
<path d="M811.516 125.525C811.516 118.899 812.596 112.882 814.756 107.471C816.744 102.327 819.735 97.6268 823.555 93.642C827.316 89.7968 831.841 86.7787 836.841 84.7815C842.145 82.6557 847.815 81.5867 853.53 81.635C859.285 81.635 864.434 82.6285 868.977 84.6155C873.343 86.4829 877.228 89.3145 880.337 92.8969C883.472 96.5922 885.843 100.87 887.313 105.483C888.97 110.677 889.783 116.102 889.721 121.552C889.734 122.285 889.601 123.013 889.331 123.695C889.061 124.377 888.658 124.998 888.146 125.525C887.624 126.072 886.991 126.503 886.29 126.788C885.588 127.074 884.834 127.208 884.077 127.181H827.957C828.096 131.357 829.056 135.466 830.783 139.273C832.33 142.65 834.531 145.688 837.26 148.214C839.88 150.62 842.958 152.478 846.311 153.677C849.747 154.904 853.373 155.521 857.022 155.5C861.67 155.5 865.712 154.754 869.147 153.264C872.583 151.774 875.24 150.311 877.118 148.874C880.44 147.112 882.93 147.719 884.59 150.697L886.084 153.183C886.972 154.62 887.276 155.972 886.997 157.241C886.719 158.51 885.865 159.586 884.436 160.468C881.028 162.878 877.316 164.828 873.395 166.268C870.797 167.21 868.131 167.957 865.42 168.503C862.329 169.125 859.182 169.43 856.028 169.414C849.385 169.414 843.349 168.279 837.921 166.008C832.678 163.866 827.91 160.715 823.888 156.734C819.926 152.764 816.819 148.029 814.756 142.82C812.568 137.317 811.468 131.444 811.516 125.525ZM873.63 116.583C873.408 109.186 871.332 103.61 867.401 99.8542C865.527 98.0233 863.306 96.5825 860.869 95.6154C858.431 94.6483 855.825 94.1744 853.201 94.2211C847.002 94.2211 841.66 96.1811 837.174 100.101C832.689 104.021 829.842 109.515 828.636 116.583H873.63Z" fill="white"/>
<path d="M899.37 89.0857C899.37 85.441 901.197 83.6201 904.852 83.6229H909.501C913.156 83.6229 914.983 85.4438 914.983 89.0857V96.5411C914.982 97.6536 914.871 98.7632 914.65 99.8537C914.534 100.342 914.478 100.842 914.483 101.344H914.817C915.834 99.1716 917.086 97.1171 918.552 95.2169C920.411 92.7544 922.622 90.5768 925.114 88.7536C927.971 86.66 931.099 84.9614 934.413 83.7038C937.956 82.3243 942.053 81.6345 946.704 81.6345C956.666 81.6345 963.945 84.3113 968.542 89.6648C973.138 95.0182 975.437 103.051 975.437 113.764V161.962C975.437 165.607 973.609 167.429 969.955 167.429H964.806C961.152 167.429 959.324 165.607 959.324 161.962V117.409C959.34 114.638 959.146 111.869 958.744 109.127C958.426 106.797 957.665 104.548 956.502 102.502C955.353 100.588 953.683 99.0375 951.686 98.0314C949.583 96.93 946.871 96.3779 943.549 96.3751C939.653 96.3314 935.796 97.1517 932.257 98.7765C928.881 100.334 925.857 102.559 923.368 105.316C920.809 108.195 918.835 111.543 917.557 115.173C916.156 119.078 915.453 123.199 915.483 127.346V161.962C915.483 165.607 913.655 167.429 910.001 167.429H904.852C901.197 167.429 899.37 165.607 899.37 161.962V89.0857Z" fill="white"/>
<path d="M986.217 160.307C984.774 159.424 983.998 158.32 983.89 156.994C983.816 155.525 984.224 154.073 985.051 152.856L986.712 150.535C987.819 149.099 988.958 148.327 990.127 148.219C991.297 148.111 992.709 148.497 994.363 149.377C996.932 150.968 999.593 152.406 1002.33 153.682C1005.75 155.336 1009.96 156.165 1014.95 156.168C1019.16 156.168 1022.6 155.202 1025.25 153.269C1027.91 151.336 1029.24 148.602 1029.24 145.068C1029.28 143.785 1029 142.512 1028.44 141.358C1027.87 140.204 1027.03 139.204 1026 138.443C1023.51 136.602 1020.81 135.073 1017.95 133.891C1014.72 132.512 1011.26 131.186 1007.56 129.914C1003.92 128.676 1000.43 127.008 997.185 124.946C994.042 122.968 991.308 120.41 989.128 117.409C986.974 114.429 985.895 110.564 985.892 105.815C985.892 101.841 986.695 98.3357 988.3 95.2985C989.865 92.3094 992.111 89.7281 994.858 87.7621C997.806 85.6899 1001.09 84.148 1004.57 83.2063C1008.39 82.1449 1012.33 81.6162 1016.29 81.6351C1022.15 81.6351 1026.99 82.4072 1030.8 83.9514C1033.81 85.1094 1036.73 86.4944 1039.52 88.0942C1041.07 88.8692 1041.98 89.8896 1042.26 91.1556C1042.54 92.4216 1042.23 93.8295 1041.35 95.3794L1039.85 97.8659C1038.3 100.625 1035.87 101.232 1032.55 99.6883C1030.32 98.4842 1028.02 97.4329 1025.65 96.5417C1022.83 95.4404 1019.43 94.8883 1015.44 94.8855C1011.45 94.8826 1008.12 95.7654 1005.43 97.5338C1002.71 99.3022 1001.36 101.952 1001.36 105.483C1001.32 106.776 1001.6 108.058 1002.16 109.225C1002.72 110.392 1003.54 111.409 1004.57 112.193C1007.04 114.077 1009.75 115.61 1012.63 116.749C1015.84 118.075 1019.3 119.399 1023.01 120.722C1026.63 122 1030.1 123.636 1033.39 125.606C1036.57 127.505 1039.31 130.042 1041.45 133.057C1043.61 136.097 1044.69 139.99 1044.69 144.736C1044.72 148.121 1043.99 151.471 1042.55 154.538C1041.12 157.605 1039.01 160.311 1036.38 162.457C1033.56 164.758 1030.32 166.501 1026.84 167.592C1022.83 168.85 1018.65 169.466 1014.45 169.414C1011.19 169.44 1007.94 169.135 1004.74 168.503C1002.04 167.966 999.402 167.19 996.847 166.183C994.704 165.334 992.623 164.338 990.618 163.202C989.081 162.348 987.609 161.38 986.217 160.307Z" fill="white"/>
<path d="M1059.8 66.8949C1056.14 66.8949 1054.32 65.0725 1054.32 61.4279V55.9608C1054.32 52.3161 1056.14 50.4952 1059.8 50.4981H1065.45C1069.1 50.4981 1070.93 52.319 1070.93 55.9608V61.4279C1070.93 65.0725 1069.1 66.8949 1065.45 66.8949H1059.8ZM1054.48 89.0866C1054.48 85.4419 1056.31 83.621 1059.97 83.6238H1065.11C1068.77 83.6238 1070.6 85.4448 1070.6 89.0866V161.963C1070.6 165.608 1068.77 167.43 1065.11 167.43H1059.97C1056.31 167.43 1054.48 165.608 1054.48 161.963V89.0866Z" fill="white"/>
<path d="M1080.39 125.359C1080.34 119.354 1081.55 113.405 1083.96 107.902C1086.24 102.689 1089.52 97.9654 1093.6 93.9913C1097.7 90.0332 1102.56 86.935 1107.88 84.8796C1119.28 80.5769 1131.86 80.5769 1143.25 84.8796C1148.59 86.9361 1153.47 90.03 1157.61 93.982C1161.74 97.934 1165.05 102.665 1167.34 107.902C1169.69 113.457 1170.9 119.427 1170.9 125.459C1170.9 131.49 1169.69 137.46 1167.34 143.016C1165.04 148.244 1161.74 152.972 1157.62 156.93C1153.47 160.887 1148.59 164.008 1143.25 166.123C1131.88 170.54 1119.26 170.54 1107.88 166.123C1102.57 164.029 1097.72 160.911 1093.62 156.945C1089.51 152.98 1086.24 148.247 1083.97 143.016C1081.54 137.448 1080.32 131.43 1080.39 125.359ZM1096.67 125.359C1096.62 129.531 1097.41 133.67 1099 137.532C1100.44 141.075 1102.55 144.309 1105.22 147.056C1109.26 151.104 1114.43 153.858 1120.05 154.966C1125.67 156.075 1131.49 155.488 1136.78 153.281C1140.22 151.821 1143.35 149.712 1145.99 147.069C1148.7 144.346 1150.82 141.099 1152.22 137.527C1153.75 133.652 1154.51 129.518 1154.46 125.354C1154.5 121.272 1153.74 117.222 1152.22 113.432C1150.8 109.902 1148.68 106.691 1145.99 103.993C1143.35 101.353 1140.22 99.2448 1136.78 97.785C1131.5 95.5397 1125.67 94.9311 1120.04 96.0384C1114.41 97.1456 1109.25 99.9175 1105.22 103.993C1099.67 109.718 1096.6 117.394 1096.68 125.359H1096.67Z" fill="white"/>
<path d="M1180.7 89.0857C1180.7 85.441 1182.53 83.6201 1186.18 83.6229H1190.83C1194.49 83.6229 1196.31 85.4438 1196.31 89.0857V96.5411C1196.31 97.6533 1196.2 98.7628 1195.98 99.8537C1195.87 100.342 1195.81 100.842 1195.82 101.344H1196.15C1197.16 99.1708 1198.42 97.116 1199.88 95.2169C1201.74 92.7554 1203.95 90.578 1206.44 88.7536C1209.3 86.66 1212.43 84.9614 1215.75 83.7038C1219.28 82.3243 1223.38 81.6345 1228.03 81.6345C1237.99 81.6345 1245.27 84.3113 1249.87 89.6648C1254.47 95.0182 1256.77 103.051 1256.76 113.764V161.962C1256.76 165.607 1254.94 167.429 1251.28 167.429H1246.13C1242.48 167.429 1240.66 165.607 1240.66 161.962V117.409C1240.67 114.638 1240.48 111.869 1240.08 109.127C1239.76 106.797 1238.99 104.549 1237.83 102.502C1236.68 100.586 1235.01 99.0352 1233.01 98.0314C1230.91 96.93 1228.2 96.3779 1224.88 96.3751C1220.98 96.3324 1217.12 97.1526 1213.59 98.7765C1210.21 100.334 1207.19 102.559 1204.7 105.316C1202.14 108.194 1200.16 111.542 1198.89 115.173C1197.49 119.079 1196.78 123.199 1196.81 127.346V161.962C1196.81 165.607 1194.98 167.429 1191.33 167.429H1186.21C1182.55 167.429 1180.72 165.607 1180.72 161.962L1180.7 89.0857Z" fill="white"/>
<path d="M109.295 0C48.9352 0 0 48.803 0 109C0 169.197 48.9352 218 109.295 218C169.655 218 218.59 169.201 218.59 109C218.59 48.7988 169.659 0 109.295 0ZM143.117 122.51C128.174 152.945 96.7048 174.63 60.2532 180.727C57.9093 181.119 57.0426 177.768 59.2798 176.963C73.1978 171.947 100.12 158.229 113.85 136.582C124.9 120.432 131.735 88.4688 63.8394 95.6134C61.6279 95.8476 60.6673 92.369 62.708 91.5046C84.4176 82.3248 100.966 80.4769 117.578 80.2768C137.345 80.4727 159.746 89.9463 143.117 122.51ZM144.731 72.3573C136.013 72.3573 128.934 64.574 128.934 54.9726C128.934 45.3713 136 37.5837 144.731 37.5837C153.461 37.5837 160.527 45.367 160.527 54.9726C160.527 64.5782 153.427 72.3573 144.731 72.3573Z" fill="white"/>
<path d="M275.543 157.326C274.517 156.47 273.79 155.31 273.468 154.014C273.184 152.799 273.653 151.364 274.877 149.709L277.703 145.732C279.696 143.195 282.186 142.864 285.175 144.74C286.168 145.51 287.497 146.421 289.162 147.474C291.003 148.619 292.917 149.641 294.892 150.535C297.223 151.589 299.639 152.444 302.116 153.09C304.934 153.829 307.838 154.192 310.752 154.167C317.062 154.167 322.072 152.648 325.78 149.611C329.489 146.574 331.339 142.516 331.331 137.438C331.331 133.132 329.947 129.598 327.181 126.836C324.095 123.856 320.565 121.369 316.717 119.466C312.516 117.314 307.984 115.221 303.123 113.186C298.384 111.213 293.827 108.831 289.504 106.067C285.388 103.447 281.833 100.04 279.044 96.0437C276.272 92.0697 274.887 87.0455 274.89 80.971C274.794 76.4641 275.732 71.9948 277.632 67.9045C279.532 63.8142 282.344 60.211 285.854 57.37C289.455 54.4628 293.564 52.2441 297.974 50.8257C302.797 49.2545 307.843 48.4723 312.917 48.5094C316.212 48.4938 319.501 48.7989 322.736 49.4206C325.609 49.9673 328.439 50.7142 331.207 51.656C333.501 52.4284 335.724 53.3986 337.85 54.5555C339.42 55.4006 340.92 56.3688 342.337 57.4509C344.992 59.3328 345.546 61.818 343.998 64.9063L341.671 69.0449C340.676 70.8119 339.536 71.723 338.255 71.7784C336.804 71.7859 335.385 71.3522 334.187 70.5351C331.367 68.9066 328.454 67.4423 325.465 66.1496C321.867 64.5486 317.578 63.7482 312.597 63.7482C306.506 63.7482 301.468 65.21 297.483 68.1337C293.499 71.0574 291.506 75.0612 291.506 80.145C291.506 84.3404 292.891 87.7622 295.66 90.4106C298.755 93.2862 302.282 95.6623 306.112 97.453C310.321 99.4968 314.861 101.484 319.731 103.414C324.498 105.294 329.061 107.652 333.35 110.452C337.473 113.133 341.028 116.595 343.814 120.641C346.572 124.675 347.951 129.837 347.951 136.127C347.987 140.581 347.141 144.998 345.462 149.126C343.827 153.13 341.332 156.729 338.153 159.668C334.746 162.77 330.771 165.187 326.446 166.787C321.85 168.553 316.618 169.437 310.752 169.44C306.759 169.457 302.776 169.036 298.875 168.184C295.438 167.44 292.076 166.387 288.829 165.037C286.1 163.903 283.457 162.571 280.923 161.052C279.042 159.941 277.244 158.695 275.543 157.326Z" fill="white"/>
<path d="M357.416 89.086C357.416 85.4413 359.243 83.6203 362.898 83.6232H367.547C371.202 83.6232 373.029 85.4441 373.029 89.086V96.5414C373.028 97.6538 372.917 98.7635 372.696 99.854C372.58 100.342 372.524 100.843 372.53 101.344H372.863C373.967 98.7404 375.451 96.313 377.264 94.14C379.235 91.7343 381.535 89.6161 384.095 87.8469C386.721 86.0093 389.566 84.506 392.566 83.372C395.615 82.2129 398.853 81.624 402.116 81.6348C415.952 81.6348 424.365 87.9832 427.356 100.68H427.689C428.895 98.1005 430.461 95.7038 432.339 93.5609C434.337 91.2354 436.625 89.1749 439.148 87.4297C441.76 85.6343 444.611 84.2126 447.619 83.2059C450.776 82.1489 454.086 81.6181 457.417 81.6348C467.048 81.6348 474.08 84.3115 478.512 89.665C482.943 95.0185 485.157 103.052 485.155 113.764V161.963C485.155 165.607 483.327 167.43 479.673 167.43H474.524C470.869 167.43 469.042 165.607 469.042 161.963V117.256C469.058 114.485 468.864 111.716 468.462 108.974C468.146 106.654 467.414 104.41 466.301 102.349C465.25 100.474 463.698 98.9269 461.818 97.8783C459.866 96.777 457.346 96.2263 454.257 96.2263C450.585 96.1726 446.968 97.1176 443.793 98.9598C440.672 100.793 437.981 103.271 435.899 106.228C433.686 109.376 432.029 112.878 430.998 116.583C429.897 120.407 429.338 124.365 429.337 128.343V161.98C429.337 165.624 427.566 167.447 424.022 167.447H418.702C415.153 167.447 413.381 165.624 413.387 161.98V117.273C413.394 114.615 413.227 111.96 412.888 109.323C412.617 106.99 411.943 104.721 410.894 102.617C409.905 100.668 408.378 99.0409 406.492 97.9294C404.554 96.794 401.975 96.2263 398.756 96.2263C395.009 96.1698 391.318 97.1372 388.083 99.0237C384.935 100.894 382.217 103.406 380.108 106.394C377.89 109.542 376.227 113.044 375.189 116.749C374.095 120.517 373.536 124.42 373.529 128.343V161.98C373.529 165.624 371.701 167.447 368.047 167.447H362.894C359.239 167.447 357.412 165.624 357.412 161.98L357.416 89.086Z" fill="white"/>
<path d="M491.939 144.574C491.939 140.265 492.77 136.538 494.432 133.393C496.036 130.313 498.304 127.625 501.075 125.525C503.944 123.374 507.107 121.645 510.468 120.39C513.991 119.056 517.634 118.058 521.346 117.409C524.998 116.762 528.684 116.319 532.386 116.085C535.984 115.864 539.223 115.753 542.103 115.753H546.42V113.598C546.42 110.192 545.95 107.294 545.011 104.904C544.194 102.712 542.855 100.751 541.109 99.19C539.427 97.744 537.439 96.696 535.294 96.1244C532.964 95.505 530.562 95.2 528.151 95.2175C524.337 95.1515 520.541 95.7672 516.944 97.0356C514.277 97.9776 511.693 99.1412 509.221 100.514C506.008 102.064 503.516 101.403 501.745 98.5301L500.409 96.2266C498.639 92.914 499.248 90.4289 502.236 88.7712C504.781 87.3519 508.351 85.8063 512.948 84.1344C517.545 82.4625 523.054 81.6351 529.475 81.6521C539.989 81.6521 548.126 84.4396 553.887 90.0145C559.648 95.5894 562.527 103.733 562.524 114.446V161.963C562.524 165.608 560.696 167.43 557.042 167.43H552.879C549.23 167.43 547.405 165.608 547.402 161.963V154.84C547.39 154.284 547.446 153.73 547.568 153.188C547.675 152.762 547.786 152.302 547.897 151.859H547.568C545.955 155.108 543.822 158.073 541.254 160.639C538.746 163.059 535.893 165.096 532.788 166.685C529.352 168.507 525.144 169.418 520.163 169.418C516.559 169.423 512.976 168.863 509.545 167.758C506.241 166.725 503.168 165.065 500.495 162.87C497.903 160.731 495.782 158.081 494.265 155.087C492.711 152.055 491.936 148.551 491.939 144.574ZM508.213 143.25C508.213 146.562 509.516 149.627 512.12 152.442C514.724 155.258 518.626 156.665 523.826 156.662C527.167 156.715 530.461 155.887 533.377 154.261C536.167 152.684 538.593 150.54 540.498 147.968C542.446 145.354 543.961 142.446 544.985 139.354C546.015 136.337 546.547 133.174 546.561 129.987V126.342H542.244C539.256 126.342 535.823 126.484 531.947 126.768C528.17 127.026 524.437 127.72 520.821 128.837C517.488 129.824 514.422 131.552 511.855 133.891C509.427 136.156 508.213 139.276 508.213 143.25Z" fill="white"/>
<path d="M576.638 89.0863C576.638 85.4417 578.465 83.6207 582.12 83.6236H586.769C590.424 83.6236 592.251 85.4445 592.251 89.0863V98.692C592.251 99.5776 592.223 100.406 592.166 101.179C592.122 101.846 592.04 102.51 591.918 103.167C591.812 103.769 591.757 104.378 591.752 104.989H592.085C593.006 102.147 594.26 99.4236 595.82 96.8739C597.388 94.2714 599.317 91.9032 601.55 89.84C603.742 87.8146 606.235 86.1386 608.94 84.8711C611.723 83.5868 614.758 82.9367 617.825 82.9679C621.368 82.9679 623.14 84.7902 623.14 88.4349V93.0717C623.14 96.7163 621.148 98.5387 617.163 98.5387C613.064 98.5387 609.494 99.5591 606.451 101.6C603.383 103.665 600.781 106.345 598.809 109.468C596.679 112.864 595.136 116.591 594.245 120.496C593.257 124.539 592.754 128.683 592.746 132.844V161.993C592.746 165.638 590.921 167.46 587.269 167.46H582.12C578.465 167.46 576.638 165.638 576.638 161.993V89.0863Z" fill="white"/>
<path d="M642.403 97.5336H636.592C633.046 97.5336 631.274 95.7112 631.277 92.0665V89.9376C631.277 86.293 633.103 84.4706 636.755 84.4706H642.732V66.0641C642.732 62.4194 644.559 60.597 648.214 60.597H653.029C656.681 60.597 658.507 62.4194 658.507 66.0641V84.4493H673.125C676.777 84.4493 678.603 86.2717 678.603 89.9164V92.0453C678.603 95.6899 676.831 97.5123 673.287 97.5123H658.507V134.802C658.507 138.776 659.061 141.978 660.168 144.408C661.077 146.568 662.468 148.494 664.236 150.037C665.734 151.308 667.491 152.241 669.385 152.77C671.04 153.239 672.738 153.545 674.453 153.681C676.665 153.903 678.186 154.4 679.017 155.172C679.848 155.944 680.264 157.269 680.264 159.148V162.648C680.264 166.293 678.049 168.114 673.62 168.111C669.565 168.134 665.531 167.521 661.666 166.293C658.008 165.14 654.64 163.219 651.787 160.66C648.852 157.978 646.523 154.704 644.956 151.054C643.248 147.188 642.394 142.605 642.394 137.306L642.403 97.5336Z" fill="white"/>
</g>
<defs>
<clipPath id="clip0">
<path d="M0 0H1256.77V218H0V0Z" fill="white"/>
</clipPath>
</defs>
</svg>
